<?xml version="1.0" encoding="UTF-8" standalone="no"?>
<svg
   xmlns:dc="http://purl.org/dc/elements/1.1/"
   xmlns:cc="http://creativecommons.org/ns#"
   xmlns:rdf="http://www.w3.org/1999/02/22-rdf-syntax-ns#"
   xmlns:svg="http://www.w3.org/2000/svg"
   xmlns="http://www.w3.org/2000/svg"
   xmlns:sodipodi="http://sodipodi.sourceforge.net/DTD/sodipodi-0.dtd"
   xmlns:inkscape="http://www.inkscape.org/namespaces/inkscape"
   sodipodi:docname="NPCI Logo.svg"
   inkscape:version="1.0 (4035a4fb49, 2020-05-01)"
   id="svg1769"
   version="1.1"
   viewBox="0 0 38.560001 11.816998"
   height="11.817mm"
   width="38.560001mm">
  <defs
     id="defs1763" />
  <sodipodi:namedview
     inkscape:window-maximized="0"
     inkscape:window-y="0"
     inkscape:window-x="30"
     inkscape:window-height="1030"
     inkscape:window-width="1375"
     showgrid="false"
     inkscape:document-rotation="0"
     inkscape:current-layer="layer1"
     inkscape:document-units="mm"
     inkscape:cy="21.893502"
     inkscape:cx="133.34997"
     inkscape:zoom="4"
     inkscape:pageshadow="2"
     inkscape:pageopacity="0.0"
     borderopacity="1.0"
     bordercolor="#666666"
     pagecolor="#ffffff"
     id="base" />
  <metadata
     id="metadata1766">
    <rdf:RDF>
      <cc:Work
         rdf:about="">
        <dc:format>image/svg+xml</dc:format>
        <dc:type
           rdf:resource="http://purl.org/dc/dcmitype/StillImage" />
        <dc:title></dc:title>
      </cc:Work>
    </rdf:RDF>
  </metadata>
  <g
     id="layer1"
     inkscape:groupmode="layer"
     inkscape:label="Layer 1">
    <g
       transform="matrix(0.35277777,0,0,-0.35277777,29.641337,6.6099152)"
       id="g58">
      <path
         id="path60"
         style="fill:#1b3281;fill-opacity:1;fill-rule:nonzero;stroke:none"
         d="M 0,0 C -0.163,-0.582 -0.5,-1.072 -1.012,-1.467 -1.524,-1.863 -2.07,-2.06 -2.65,-2.06 h -20.681 c -0.578,0 -1.01,0.197 -1.293,0.593 -0.286,0.395 -0.347,0.885 -0.186,1.467 l 4.6,16.606 c 0.162,0.582 0.495,1.077 1.001,1.482 0.505,0.407 1.047,0.61 1.627,0.61 H 3.097 c 0.599,0 1.042,-0.199 1.327,-0.594 0.284,-0.395 0.342,-0.895 0.174,-1.498 L 4.054,14.64 H -16.625 L -20.126,1.997 H 0.552 Z" />
    </g>
    <g
       transform="matrix(0.35277777,0,0,-0.35277777,31.925749,7.3364612)"
       id="g62">
      <path
         id="path64"
         style="fill:#1b3281;fill-opacity:1;fill-rule:nonzero;stroke:none"
         d="m 0,0 h -4.128 l 5.74,20.731 H 5.74 Z" />
    </g>
    <g
       transform="matrix(0.35277777,0,0,-0.35277777,11.920429,0.00926738)"
       id="g66">
      <path
         id="path68"
         style="fill:#1b3281;fill-opacity:1;fill-rule:nonzero;stroke:none"
         d="m 0,0 h -4.128 l -3.762,-13.584 -16.589,13.553 -5.757,-20.788 h 4.127 l 3.739,13.501 16.59,-13.555 z" />
    </g>
    <g
       transform="matrix(0.35277777,0,0,-0.35277777,21.423378,0.22322738)"
       id="g70">
      <path
         id="path72"
         style="fill:#1b3281;fill-opacity:1;fill-rule:nonzero;stroke:none"
         d="m 0,0 c -0.286,0.395 -0.727,0.594 -1.326,0.594 h -22.696 l -1.125,-4.061 20.647,0.003 -1.201,-4.339 -20.637,-0.009 -3.434,-12.352 h 4.13 l 2.299,8.303 h 18.569 c 0.578,0 1.124,0.197 1.637,0.592 0.513,0.396 0.85,0.885 1.012,1.468 l 2.299,8.303 C 0.341,-0.895 0.283,-0.395 0,0" />
    </g>
    <g
       transform="matrix(0.35277777,0,0,-0.35277777,36.7079,0.01618138)"
       id="g74">
      <path
         id="path76"
         style="fill:#008c44;fill-opacity:1;fill-rule:nonzero;stroke:none"
         d="M 0,0 5.227,-10.396 -5.761,-20.786 Z" />
    </g>
    <g
       transform="matrix(0.35277777,0,0,-0.35277777,35.415286,0.01618138)"
       id="g78">
      <path
         id="path80"
         style="fill:#f47920;fill-opacity:1;fill-rule:nonzero;stroke:none"
         d="M 0,0 5.223,-10.396 -5.768,-20.786 Z" />
    </g>
    <g
       transform="matrix(0.35277777,0,0,-0.35277777,33.14569,8.2168532)"
       id="g82">
      <path
         id="path84"
         style="fill:#414042;fill-opacity:1;fill-rule:nonzero;stroke:none"
         d="M 0,0 C 0.193,0.125 0.386,0.187 0.587,0.187 0.78,0.187 0.99,0.139 1.193,0.05 1.3,0.005 1.405,-0.052 1.507,-0.12 1.746,-0.269 1.962,-0.457 2.15,-0.678 l 0.047,-0.06 C 2.235,-0.787 2.274,-0.837 2.315,-0.886 H -0.35 c -0.011,0.028 -0.018,0.054 -0.024,0.076 -0.002,0.01 -0.005,0.018 -0.007,0.021 -0.015,0.111 -0.012,0.21 0.015,0.303 C -0.312,-0.281 -0.188,-0.119 0,0 M 10.385,-1.218 10.102,-2.272 H 8.766 L 9.05,-1.218 Z M 2.903,-0.886 C 2.819,-0.775 2.733,-0.665 2.65,-0.551 2.375,-0.244 2.119,-0.016 1.867,0.147 1.677,0.271 1.491,0.362 1.302,0.426 1.109,0.49 0.902,0.523 0.7,0.523 0.328,0.523 -0.001,0.443 -0.278,0.285 -0.552,0.124 -0.733,-0.114 -0.815,-0.424 -0.849,-0.542 -0.851,-0.662 -0.822,-0.777 l 0.001,-0.01 c 0.004,-0.026 0.01,-0.06 0.02,-0.099 h -0.688 l -0.089,-0.332 h 0.682 l -0.805,-2.984 h 0.483 l 0.805,2.984 H 2.804 L 2.599,-1.982 H 0.633 C 0.568,-1.982 0.498,-1.994 0.415,-2.019 0.331,-2.046 0.272,-2.114 0.245,-2.213 0.231,-2.26 0.239,-2.355 0.454,-2.627 l 0.029,-0.032 c 0.185,-0.225 0.308,-0.327 0.4,-0.327 0.136,0 0.195,0.057 0.224,0.113 l 0.151,0.56 h 1.251 l -0.51,-1.889 h 0.48 l 0.806,2.984 H 5.01 L 4.752,-2.17 H 4.312 C 4.284,-2.177 4.253,-2.184 4.233,-2.185 4.126,-2.207 4.064,-2.252 4.048,-2.321 4.014,-2.447 4.091,-2.606 4.283,-2.81 c 0.204,-0.205 0.355,-0.297 0.488,-0.297 0.106,0 0.19,0.052 0.242,0.151 0.016,0.032 0.029,0.079 0.036,0.134 l 0.434,1.604 H 6.64 L 5.835,-4.202 H 6.32 l 0.805,2.984 H 8.56 L 8.276,-2.272 H 7.954 c -0.042,0 -0.092,-0.009 -0.143,-0.026 -0.082,-0.017 -0.132,-0.07 -0.158,-0.161 -0.026,-0.096 0.046,-0.233 0.235,-0.443 0.176,-0.205 0.322,-0.305 0.443,-0.305 0.095,0 0.162,0.029 0.201,0.087 0.017,0.02 0.028,0.05 0.028,0.087 l 0.113,0.418 h 1.336 L 9.58,-4.202 h 0.48 l 0.805,2.984 h 0.639 l 0.089,0.332 z" />
    </g>
    <g
       transform="matrix(0.35277777,0,0,-0.35277777,26.434269,8.6466432)"
       id="g86">
      <path
         id="path88"
         style="fill:#414042;fill-opacity:1;fill-rule:nonzero;stroke:none"
         d="M 0,0 H 0.905 L 0.597,-1.146 H -0.57 l 0.255,0.953 c 0.047,0.175 0.007,0.322 -0.122,0.437 -0.125,0.112 -0.299,0.168 -0.517,0.168 -0.217,0 -0.417,-0.049 -0.597,-0.148 C -1.726,0.16 -1.844,0.007 -1.899,-0.191 -1.916,-0.25 -1.914,-0.32 -1.892,-0.431 l 0.004,-0.016 c 0.007,-0.025 0.015,-0.055 0.034,-0.089 l 0.009,-0.021 h 0.452 l -0.043,0.062 c -0.013,0.019 -0.021,0.032 -0.024,0.041 -0.022,0.085 -0.023,0.165 -0.002,0.246 0.025,0.091 0.072,0.163 0.148,0.22 0.074,0.054 0.16,0.081 0.261,0.081 0.13,0 0.213,-0.022 0.248,-0.067 0.039,-0.044 0.048,-0.104 0.027,-0.179 l -0.268,-0.993 h -0.448 c -0.038,0 -0.087,-0.015 -0.151,-0.045 -0.071,-0.04 -0.112,-0.085 -0.125,-0.138 -0.015,-0.056 -0.002,-0.166 0.289,-0.472 0.285,-0.306 0.395,-0.342 0.454,-0.342 0.071,0 0.158,0.009 0.2,0.078 0.019,0.043 0.038,0.088 0.041,0.128 l 0.117,0.433 h 1.168 l -0.378,-1.4 c -0.148,-0.027 -0.293,-0.073 -0.432,-0.137 -0.073,-0.037 -0.165,-0.091 -0.267,-0.158 l -0.041,-0.027 0.309,-0.286 0.026,0.023 c 0.076,0.065 0.123,0.101 0.156,0.124 0.123,0.08 0.246,0.121 0.363,0.121 0.125,0 0.22,-0.033 0.28,-0.097 C 0.579,-3.409 0.596,-3.486 0.568,-3.585 0.527,-3.736 0.425,-3.856 0.263,-3.944 0.096,-4.033 -0.092,-4.08 -0.293,-4.08 c -0.328,0 -0.622,0.108 -0.872,0.322 -0.086,0.069 -0.178,0.175 -0.29,0.312 l -0.025,0.03 -0.389,-0.313 0.029,-0.031 c 0.145,-0.154 0.272,-0.265 0.39,-0.339 0.346,-0.217 0.719,-0.321 1.139,-0.321 0.345,0 0.645,0.072 0.89,0.217 0.253,0.149 0.414,0.345 0.481,0.585 0.055,0.204 0.012,0.38 -0.127,0.524 -0.093,0.093 -0.202,0.153 -0.331,0.183 L 1.387,0 H 3.13 L 2.872,-0.952 H 2.437 L 2.399,-0.959 C 2.381,-0.962 2.369,-0.966 2.354,-0.966 2.286,-0.98 2.193,-1.009 2.167,-1.103 2.135,-1.226 2.209,-1.386 2.399,-1.59 c 0.196,-0.202 0.358,-0.299 0.495,-0.299 0.104,0 0.189,0.054 0.236,0.149 0.018,0.031 0.031,0.078 0.037,0.136 L 3.601,0 H 4.757 L 3.952,-2.983 H 4.437 L 5.242,0 H 8.525 L 8.352,-0.642 h -1.6 C 6.521,-0.642 6.324,-0.697 6.153,-0.81 5.979,-0.918 5.863,-1.08 5.808,-1.289 5.71,-1.646 5.814,-2.033 6.118,-2.436 6.227,-2.573 6.39,-2.743 6.595,-2.923 l 0.021,-0.021 0.381,0.256 -0.038,0.033 c -0.181,0.16 -0.325,0.31 -0.419,0.432 -0.253,0.335 -0.341,0.652 -0.264,0.945 0.03,0.107 0.088,0.184 0.178,0.239 0.102,0.059 0.245,0.087 0.423,0.087 H 8.269 L 7.721,-2.983 h 0.48 L 9.007,0 h 1.155 L 9.357,-2.983 H 9.838 L 10.644,0 h 3.217 l -0.205,-0.763 -1.968,-0.001 c -0.063,0 -0.14,-0.013 -0.215,-0.036 -0.084,-0.028 -0.142,-0.096 -0.169,-0.195 -0.014,-0.052 -0.003,-0.154 0.236,-0.445 0.194,-0.232 0.311,-0.328 0.4,-0.328 0.11,0 0.183,0.036 0.225,0.114 l 0.15,0.559 h 1.252 l -0.51,-1.888 h 0.479 L 14.342,0 h 0.64 l 0.089,0.333 H 0.09 Z" />
    </g>
    <g
       transform="matrix(0.35277777,0,0,-0.35277777,22.411086,8.6466432)"
       id="g90">
      <path
         id="path92"
         style="fill:#414042;fill-opacity:1;fill-rule:nonzero;stroke:none"
         d="m 0,0 -0.167,-0.616 h -1.03 c -0.239,0 -0.459,-0.054 -0.657,-0.159 -0.048,-0.028 -0.087,-0.053 -0.128,-0.083 -0.106,-0.072 -0.187,-0.147 -0.248,-0.23 L -3.179,0 Z M -2.424,-1.425 -2.427,-1.432 -2.433,-1.456 C -2.44,-1.488 -2.448,-1.522 -2.455,-1.551 -2.488,-1.569 -2.531,-1.586 -2.576,-1.605 -2.749,-1.676 -2.92,-1.711 -3.098,-1.711 h -0.008 c -0.198,0.004 -0.345,0.05 -0.44,0.135 -0.096,0.088 -0.123,0.204 -0.083,0.354 l 0.244,0.906 z M 0.649,1.228 C 0.756,1.313 0.893,1.354 1.066,1.354 1.188,1.354 1.3,1.335 1.397,1.299 1.594,1.222 1.742,1.068 1.849,0.828 1.897,0.716 1.939,0.549 1.973,0.333 H 0.492 C 0.474,0.372 0.458,0.41 0.444,0.441 L 0.437,0.458 C 0.397,0.594 0.397,0.735 0.435,0.876 0.475,1.027 0.547,1.145 0.649,1.228 M 4.607,-0.168 C 4.596,-0.126 4.575,-0.076 4.537,0 H 5.77 L 5.357,-1.526 C 5.237,-1.632 5.147,-1.703 5.074,-1.75 4.818,-1.902 4.565,-1.98 4.302,-1.987 H 4.278 c -0.323,0 -0.538,0.099 -0.655,0.304 -0.028,0.055 -0.05,0.138 -0.071,0.274 0.189,0.034 0.343,0.077 0.458,0.121 0.344,0.143 0.559,0.368 0.638,0.667 0.039,0.138 0.024,0.296 -0.041,0.453 M 2.255,0.974 C 2.1,1.33 1.843,1.551 1.49,1.632 1.386,1.659 1.27,1.671 1.124,1.671 0.836,1.671 0.589,1.607 0.39,1.481 0.181,1.35 0.045,1.159 -0.025,0.896 -0.062,0.769 -0.052,0.618 0.001,0.454 0.008,0.419 0.021,0.38 0.041,0.333 H -8.974 L -9.063,0 h 1.96 l -0.201,-0.747 c -0.029,-0.108 -0.095,-0.199 -0.197,-0.268 -0.106,-0.069 -0.24,-0.104 -0.398,-0.104 -0.098,0 -0.176,0.013 -0.254,0.042 -0.092,0.038 -0.108,0.073 -0.113,0.088 l -0.209,0.474 -0.435,-0.224 0.017,-0.043 c 0.045,-0.106 0.086,-0.201 0.117,-0.276 0.093,-0.218 0.221,-0.462 0.39,-0.745 0.108,-0.183 0.248,-0.391 0.414,-0.619 0.129,-0.177 0.271,-0.356 0.432,-0.547 l 0.022,-0.027 0.42,0.273 -0.029,0.035 c -0.045,0.05 -0.087,0.095 -0.123,0.135 -0.038,0.041 -0.07,0.077 -0.097,0.107 -0.065,0.084 -0.127,0.16 -0.181,0.229 -0.074,0.09 -0.136,0.169 -0.184,0.234 l -0.327,0.566 c 0.189,-0.036 0.406,-0.006 0.64,0.077 0.172,0.063 0.305,0.143 0.394,0.237 0.09,0.098 0.148,0.198 0.177,0.307 L -6.613,0 h 1.256 l -0.806,-2.983 h 0.482 L -4.876,0 h 1.085 L -4.11,-1.187 c -0.067,-0.247 -0.004,-0.454 0.186,-0.617 0.187,-0.158 0.436,-0.238 0.748,-0.238 0.133,0 0.272,0.021 0.423,0.064 0.091,0.024 0.19,0.057 0.294,0.098 0.026,-0.153 0.091,-0.291 0.198,-0.418 0.027,-0.035 0.057,-0.067 0.085,-0.098 l 0.01,-0.009 c 0.181,-0.171 0.401,-0.287 0.652,-0.347 L -3.14,-3.868 h 0.71 l 1.215,0.951 0.645,-0.951 h 0.576 l -0.832,1.077 c 0.217,0.023 0.401,0.07 0.564,0.138 0.241,0.099 0.466,0.245 0.689,0.446 l 0.04,0.036 -0.361,0.204 -0.021,-0.02 c -0.316,-0.309 -0.685,-0.46 -1.125,-0.46 -0.329,0 -0.588,0.097 -0.772,0.286 -0.159,0.163 -0.223,0.344 -0.2,0.549 0.008,0.044 0.015,0.08 0.024,0.113 0.009,0.036 0.02,0.062 0.029,0.088 0.052,0.112 0.144,0.21 0.27,0.286 0.153,0.104 0.324,0.156 0.507,0.156 H 0.206 L 0.467,0 h 1.43 L 1.094,-2.983 H 1.576 L 2.382,0 H 3.973 C 4.036,-0.077 4.077,-0.13 4.099,-0.179 4.178,-0.34 4.2,-0.47 4.169,-0.588 4.122,-0.766 4.02,-0.901 3.865,-0.989 3.736,-1.062 3.571,-1.098 3.378,-1.098 c -0.022,0 -0.06,0.004 -0.106,0.017 -0.025,0.004 -0.046,0.009 -0.067,0.014 -0.024,0.005 -0.046,0.01 -0.067,0.013 L 3.105,-1.05 3.096,-1.083 C 3.015,-1.39 3.069,-1.671 3.26,-1.919 3.447,-2.17 3.769,-2.296 4.216,-2.296 h 0.021 c 0.266,0.004 0.525,0.054 0.773,0.15 0.058,0.021 0.123,0.052 0.205,0.095 L 4.965,-2.983 H 5.448 L 6.253,0 h 0.64 L 6.982,0.333 H 2.411 C 2.378,0.619 2.325,0.835 2.255,0.974" />
    </g>
    <g
       transform="matrix(0.35277777,0,0,-0.35277777,16.143425,8.2136082)"
       id="g94">
      <path
         id="path96"
         style="fill:#414042;fill-opacity:1;fill-rule:nonzero;stroke:none"
         d="m 0,0 c 0.106,0.085 0.24,0.126 0.411,0.126 0.123,0 0.231,-0.018 0.33,-0.054 0.198,-0.079 0.353,-0.237 0.456,-0.472 0.047,-0.1 0.084,-0.254 0.122,-0.495 h -1.482 c -0.02,0.041 -0.04,0.082 -0.052,0.125 -0.041,0.143 -0.043,0.284 -0.006,0.418 C -0.18,-0.2 -0.105,-0.083 0,0 M 3.957,-1.395 C 3.942,-1.349 3.919,-1.294 3.888,-1.228 H 5.115 L 4.705,-2.755 C 4.587,-2.861 4.482,-2.934 4.417,-2.977 4.167,-3.127 3.906,-3.208 3.645,-3.214 H 3.623 c -0.321,0 -0.542,0.102 -0.654,0.3 -0.029,0.065 -0.053,0.16 -0.071,0.277 0.191,0.036 0.35,0.078 0.464,0.122 0.34,0.143 0.554,0.368 0.634,0.667 0.036,0.131 0.023,0.289 -0.039,0.453 M 1.604,-0.252 C 1.441,0.104 1.183,0.325 0.836,0.404 0.737,0.432 0.618,0.444 0.47,0.444 c -0.287,0 -0.533,-0.064 -0.734,-0.19 -0.209,-0.133 -0.35,-0.329 -0.421,-0.585 -0.032,-0.125 -0.023,-0.275 0.029,-0.443 0.008,-0.037 0.024,-0.076 0.044,-0.121 h -9.016 l -0.09,-0.333 h 0.903 l -0.308,-1.146 h -1.168 l 0.258,0.953 c 0.047,0.175 0.004,0.323 -0.124,0.438 -0.12,0.111 -0.293,0.168 -0.517,0.168 -0.217,0 -0.418,-0.05 -0.596,-0.149 -0.175,-0.103 -0.29,-0.252 -0.344,-0.455 -0.017,-0.066 -0.016,-0.144 0.005,-0.233 0,-0.032 0.012,-0.072 0.034,-0.112 l 0.011,-0.02 h 0.453 l -0.047,0.062 c -0.015,0.02 -0.019,0.027 -0.02,0.041 -0.023,0.08 -0.024,0.161 -0.002,0.244 0.027,0.093 0.074,0.166 0.145,0.221 0.07,0.054 0.157,0.081 0.259,0.081 0.132,0 0.218,-0.022 0.255,-0.066 0.036,-0.042 0.042,-0.102 0.021,-0.178 l -0.267,-0.995 h -0.444 c -0.044,0 -0.091,-0.016 -0.159,-0.044 -0.066,-0.038 -0.104,-0.082 -0.119,-0.139 -0.009,-0.033 -0.036,-0.134 0.286,-0.471 0.286,-0.306 0.397,-0.342 0.457,-0.342 0.066,0 0.16,0.008 0.198,0.076 0.023,0.043 0.037,0.089 0.043,0.129 l 0.118,0.432 h 1.166 L -9.62,-4.211 h 0.481 l 0.806,2.983 h 1.149 l -0.804,-2.983 h 0.484 l 0.806,2.983 h 2.426 l -0.203,-0.747 c -0.029,-0.112 -0.093,-0.199 -0.195,-0.267 -0.108,-0.071 -0.239,-0.105 -0.398,-0.105 -0.094,0 -0.177,0.014 -0.252,0.042 -0.083,0.036 -0.109,0.071 -0.117,0.089 l -0.209,0.474 -0.426,-0.224 0.011,-0.032 c 0.035,-0.092 0.074,-0.189 0.118,-0.287 0.094,-0.22 0.222,-0.457 0.385,-0.745 0.098,-0.164 0.226,-0.354 0.418,-0.619 0.155,-0.207 0.295,-0.387 0.431,-0.548 l 0.022,-0.026 0.425,0.272 -0.04,0.045 c -0.09,0.097 -0.161,0.174 -0.211,0.233 l -0.07,0.088 c -0.125,0.153 -0.223,0.275 -0.295,0.374 l -0.331,0.566 c 0.189,-0.035 0.405,-0.005 0.639,0.078 0.174,0.062 0.308,0.142 0.397,0.236 0.089,0.097 0.147,0.198 0.177,0.307 l 0.215,0.796 h 3.393 L -0.562,-1.87 h -1.601 c -0.23,0 -0.431,-0.056 -0.601,-0.167 -0.172,-0.11 -0.289,-0.273 -0.344,-0.481 -0.097,-0.357 0.007,-0.743 0.311,-1.146 0.111,-0.142 0.276,-0.31 0.476,-0.488 l 0.023,-0.019 0.38,0.255 -0.038,0.033 c -0.186,0.167 -0.331,0.316 -0.418,0.432 -0.251,0.334 -0.339,0.652 -0.261,0.946 0.031,0.108 0.087,0.186 0.174,0.238 0.105,0.058 0.245,0.088 0.421,0.088 h 1.394 l -0.546,-2.032 h 0.481 l 0.805,2.983 H 1.245 L 0.441,-4.211 h 0.481 l 0.806,2.983 h 1.59 C 3.386,-1.305 3.425,-1.356 3.445,-1.408 3.524,-1.553 3.547,-1.687 3.513,-1.815 3.465,-1.993 3.364,-2.127 3.213,-2.216 3.08,-2.289 2.915,-2.326 2.725,-2.326 2.705,-2.326 2.67,-2.323 2.616,-2.309 2.595,-2.306 2.574,-2.3 2.554,-2.295 2.53,-2.289 2.509,-2.284 2.488,-2.281 L 2.454,-2.277 2.445,-2.31 C 2.362,-2.612 2.415,-2.894 2.603,-3.147 2.79,-3.397 3.111,-3.524 3.561,-3.524 h 0.021 c 0.272,0.005 0.525,0.054 0.777,0.15 0.057,0.022 0.126,0.054 0.205,0.094 L 4.313,-4.211 h 0.48 l 0.805,2.983 h 0.64 l 0.09,0.333 H 1.76 C 1.726,-0.61 1.673,-0.394 1.604,-0.252" />
    </g>
    <g
       transform="matrix(0.35277777,0,0,-0.35277777,0.00489931,11.764634)"
       id="g98">
      <path
         id="path100"
         style="fill:#414042;fill-opacity:1;fill-rule:nonzero;stroke:none"
         d="M 0,0 0.974,3.501 2.541,1.442 C 2.583,1.384 2.625,1.322 2.666,1.256 2.707,1.19 2.75,1.116 2.792,1.033 L 3.441,3.368 H 3.947 L 2.975,-0.131 1.374,1.964 C 1.332,2.021 1.292,2.081 1.255,2.144 1.219,2.207 1.185,2.273 1.154,2.342 L 0.504,0 Z" />
    </g>
    <g
       transform="matrix(0.35277777,0,0,-0.35277777,1.7539712,11.297803)"
       id="g102">
      <path
         id="path104"
         style="fill:#414042;fill-opacity:1;fill-rule:nonzero;stroke:none"
         d="M 0,0 H 0.938 L 0.807,0.768 C 0.8,0.817 0.795,0.874 0.791,0.937 0.787,1 0.786,1.072 0.786,1.149 0.747,1.076 0.709,1.008 0.671,0.944 0.632,0.88 0.594,0.822 0.559,0.768 Z m 1.146,-1.323 -0.142,0.867 h -1.333 l -0.632,-0.867 h -0.576 l 2.603,3.501 0.658,-3.501 z" />
    </g>
    <g
       transform="matrix(0.35277777,0,0,-0.35277777,2.9518282,10.740413)"
       id="g106">
      <path
         id="path108"
         style="fill:#414042;fill-opacity:1;fill-rule:nonzero;stroke:none"
         d="M 0,0 -0.807,-2.903 H -1.354 L -0.548,0 h -0.894 l 0.129,0.465 H 1.019 L 0.89,0 Z" />
    </g>
    <g
       transform="matrix(0.35277777,0,0,-0.35277777,3.1654352,11.764634)"
       id="g110">
      <path
         id="path112"
         style="fill:#414042;fill-opacity:1;fill-rule:nonzero;stroke:none"
         d="M 0,0 0.936,3.368 H 1.483 L 0.548,0 Z" />
    </g>
    <g
       transform="matrix(0.35277777,0,0,-0.35277777,4.7508542,11.17292)"
       id="g114">
      <path
         id="path116"
         style="fill:#414042;fill-opacity:1;fill-rule:nonzero;stroke:none"
         d="m 0,0 c 0.047,0.17 0.062,0.332 0.042,0.485 -0.02,0.154 -0.071,0.29 -0.154,0.41 -0.081,0.118 -0.187,0.209 -0.319,0.272 -0.131,0.064 -0.281,0.096 -0.447,0.096 -0.165,0 -0.331,-0.032 -0.499,-0.095 C -1.543,1.105 -1.701,1.014 -1.852,0.895 -2.001,0.777 -2.128,0.641 -2.231,0.487 -2.336,0.334 -2.411,0.171 -2.46,0 c -0.047,-0.17 -0.061,-0.332 -0.042,-0.484 0.021,-0.151 0.071,-0.287 0.154,-0.407 0.083,-0.119 0.191,-0.211 0.322,-0.274 0.131,-0.062 0.281,-0.093 0.448,-0.093 0.164,0 0.329,0.031 0.494,0.093 0.166,0.063 0.324,0.155 0.476,0.274 0.15,0.12 0.276,0.256 0.38,0.409 C -0.123,-0.33 -0.046,-0.168 0,0 M 0.57,0 C 0.504,-0.24 0.396,-0.466 0.248,-0.679 0.099,-0.893 -0.085,-1.082 -0.304,-1.25 c -0.218,-0.167 -0.451,-0.294 -0.692,-0.383 -0.243,-0.089 -0.483,-0.134 -0.723,-0.134 -0.243,0 -0.462,0.045 -0.657,0.134 -0.194,0.09 -0.353,0.218 -0.477,0.383 -0.125,0.168 -0.203,0.357 -0.232,0.569 -0.03,0.211 -0.012,0.438 0.055,0.681 0.067,0.24 0.175,0.468 0.323,0.681 0.148,0.213 0.331,0.404 0.55,0.572 0.219,0.168 0.448,0.295 0.691,0.383 0.241,0.087 0.486,0.131 0.729,0.131 0.241,0 0.46,-0.044 0.652,-0.131 C 0.108,1.548 0.268,1.421 0.392,1.253 0.517,1.083 0.594,0.892 0.624,0.677 0.655,0.463 0.637,0.238 0.57,0" />
    </g>
    <g
       transform="matrix(0.35277777,0,0,-0.35277777,4.9761732,11.764634)"
       id="g118">
      <path
         id="path120"
         style="fill:#414042;fill-opacity:1;fill-rule:nonzero;stroke:none"
         d="M 0,0 0.974,3.501 2.54,1.442 C 2.582,1.384 2.624,1.322 2.666,1.256 2.707,1.19 2.749,1.116 2.792,1.033 L 3.441,3.368 H 3.946 L 2.975,-0.131 1.374,1.964 C 1.332,2.021 1.292,2.081 1.255,2.144 1.218,2.207 1.185,2.273 1.154,2.342 L 0.504,0 Z" />
    </g>
    <g
       transform="matrix(0.35277777,0,0,-0.35277777,6.7248926,11.297803)"
       id="g122">
      <path
         id="path124"
         style="fill:#414042;fill-opacity:1;fill-rule:nonzero;stroke:none"
         d="M 0,0 H 0.938 L 0.807,0.768 C 0.801,0.817 0.796,0.874 0.791,0.937 0.788,1 0.787,1.072 0.787,1.149 0.748,1.076 0.709,1.008 0.671,0.944 0.632,0.88 0.595,0.822 0.559,0.768 Z m 1.146,-1.323 -0.141,0.867 h -1.334 l -0.632,-0.867 h -0.575 l 2.603,3.501 0.657,-3.501 z" />
    </g>
    <g
       transform="matrix(0.35277777,0,0,-0.35277777,7.4783206,11.764634)"
       id="g126">
      <path
         id="path128"
         style="fill:#414042;fill-opacity:1;fill-rule:nonzero;stroke:none"
         d="M 0,0 0.935,3.368 H 1.482 L 0.684,0.49 H 1.907 L 1.771,0 Z" />
    </g>
    <g
       transform="matrix(0.35277777,0,0,-0.35277777,9.1795196,11.073013)"
       id="g130">
      <path
         id="path132"
         style="fill:#414042;fill-opacity:1;fill-rule:nonzero;stroke:none"
         d="m 0,0 h 0.141 c 0.303,0 0.516,0.033 0.634,0.099 0.121,0.066 0.204,0.182 0.25,0.349 0.05,0.18 0.032,0.306 -0.056,0.38 -0.088,0.073 -0.277,0.11 -0.567,0.11 h -0.14 z m -0.158,-0.449 -0.42,-1.511 h -0.513 l 0.935,3.368 h 0.829 c 0.245,0 0.423,-0.014 0.53,-0.041 C 1.312,1.34 1.4,1.296 1.469,1.234 1.553,1.157 1.607,1.051 1.63,0.919 1.652,0.786 1.642,0.64 1.598,0.48 1.553,0.321 1.482,0.174 1.386,0.039 1.288,-0.096 1.176,-0.202 1.049,-0.279 0.945,-0.34 0.832,-0.384 0.71,-0.411 0.587,-0.436 0.402,-0.449 0.157,-0.449 H 0.049 Z" />
    </g>
    <g
       transform="matrix(0.35277777,0,0,-0.35277777,9.8688836,11.297803)"
       id="g134">
      <path
         id="path136"
         style="fill:#414042;fill-opacity:1;fill-rule:nonzero;stroke:none"
         d="M 0,0 H 0.938 L 0.808,0.768 C 0.801,0.817 0.796,0.874 0.792,0.937 0.788,1 0.787,1.072 0.787,1.149 0.748,1.076 0.709,1.008 0.672,0.944 0.633,0.88 0.595,0.822 0.56,0.768 Z m 1.146,-1.323 -0.14,0.867 h -1.334 l -0.633,-0.867 h -0.575 l 2.603,3.501 0.657,-3.501 z" />
    </g>
    <g
       transform="matrix(0.35277777,0,0,-0.35277777,10.587529,11.764634)"
       id="g138">
      <path
         id="path140"
         style="fill:#414042;fill-opacity:1;fill-rule:nonzero;stroke:none"
         d="M 0,0 0.429,1.542 -0.198,3.368 H 0.377 L 0.766,2.225 C 0.774,2.195 0.784,2.157 0.797,2.109 0.81,2.062 0.82,2.01 0.831,1.956 0.867,2.009 0.904,2.06 0.941,2.107 0.978,2.155 1.015,2.198 1.053,2.238 l 1.038,1.13 H 2.639 L 0.972,1.542 0.542,0 Z" />
    </g>
    <g
       transform="matrix(0.35277777,0,0,-0.35277777,12.349689,11.177928)"
       id="g142">
      <path
         id="path144"
         style="fill:#414042;fill-opacity:1;fill-rule:nonzero;stroke:none"
         d="M 0,0 C 0.001,0.026 0.011,0.098 0.03,0.216 0.045,0.314 0.057,0.396 0.065,0.46 0.031,0.384 -0.011,0.307 -0.058,0.23 -0.104,0.154 -0.157,0.076 -0.218,-0.004 L -1.598,-1.799 -1.97,0.033 C -1.986,0.108 -1.997,0.18 -2.005,0.251 -2.012,0.321 -2.016,0.392 -2.017,0.46 -2.038,0.39 -2.064,0.316 -2.096,0.238 -2.127,0.161 -2.164,0.08 -2.208,-0.004 L -3.03,-1.663 h -0.504 l 1.771,3.51 0.404,-2.125 c 0.006,-0.034 0.013,-0.09 0.023,-0.168 0.01,-0.079 0.021,-0.175 0.033,-0.29 0.059,0.096 0.144,0.219 0.255,0.368 0.028,0.04 0.052,0.071 0.067,0.093 L 0.58,1.847 0.418,-1.663 H -0.09 Z" />
    </g>
    <g
       transform="matrix(0.35277777,0,0,-0.35277777,12.68458,11.764634)"
       id="g146">
      <path
         id="path148"
         style="fill:#414042;fill-opacity:1;fill-rule:nonzero;stroke:none"
         d="M 0,0 0.937,3.368 H 2.816 L 2.687,2.903 H 1.354 L 1.12,2.059 H 2.453 L 2.318,1.578 H 0.986 L 0.685,0.49 H 2.016 L 1.88,0 Z" />
    </g>
    <g
       transform="matrix(0.35277777,0,0,-0.35277777,13.602684,11.764634)"
       id="g150">
      <path
         id="path152"
         style="fill:#414042;fill-opacity:1;fill-rule:nonzero;stroke:none"
         d="M 0,0 0.973,3.501 2.54,1.442 C 2.582,1.384 2.624,1.322 2.665,1.256 2.706,1.19 2.749,1.116 2.792,1.033 L 3.441,3.368 H 3.946 L 2.975,-0.131 1.374,1.964 C 1.331,2.021 1.292,2.081 1.255,2.144 1.219,2.207 1.184,2.273 1.154,2.342 L 0.504,0 Z" />
    </g>
    <g
       transform="matrix(0.35277777,0,0,-0.35277777,15.639412,10.740413)"
       id="g154">
      <path
         id="path156"
         style="fill:#414042;fill-opacity:1;fill-rule:nonzero;stroke:none"
         d="M 0,0 -0.807,-2.903 H -1.354 L -0.548,0 h -0.894 l 0.129,0.465 H 1.019 L 0.89,0 Z" />
    </g>
    <g
       transform="matrix(0.35277777,0,0,-0.35277777,15.847515,11.526755)"
       id="g158">
      <path
         id="path160"
         style="fill:#414042;fill-opacity:1;fill-rule:nonzero;stroke:none"
         d="m 0,0 0.494,0.202 c 0,-0.15 0.044,-0.264 0.132,-0.344 0.089,-0.079 0.219,-0.118 0.391,-0.118 0.163,0 0.304,0.045 0.425,0.136 0.121,0.09 0.203,0.211 0.245,0.362 C 1.741,0.437 1.627,0.613 1.342,0.768 1.302,0.792 1.271,0.808 1.249,0.819 0.928,1 0.727,1.164 0.645,1.31 0.562,1.456 0.549,1.635 0.608,1.848 0.685,2.122 0.839,2.344 1.073,2.514 1.308,2.685 1.575,2.77 1.877,2.77 2.126,2.77 2.319,2.722 2.46,2.626 2.601,2.53 2.679,2.392 2.692,2.213 L 2.204,1.992 C 2.165,2.098 2.114,2.175 2.047,2.224 1.979,2.273 1.894,2.298 1.789,2.298 1.643,2.298 1.515,2.259 1.407,2.183 1.299,2.106 1.227,2.003 1.191,1.875 1.135,1.672 1.272,1.484 1.604,1.309 1.63,1.294 1.65,1.285 1.664,1.277 1.955,1.123 2.142,0.973 2.226,0.827 2.309,0.681 2.319,0.498 2.259,0.278 2.17,-0.041 2,-0.294 1.746,-0.482 1.493,-0.67 1.195,-0.764 0.854,-0.764 0.567,-0.764 0.351,-0.698 0.203,-0.566 0.057,-0.435 -0.011,-0.246 0,0" />
    </g>
    <g
       transform="matrix(0.35277777,0,0,-0.35277777,18.43373,10.865297)"
       id="g162">
      <path
         id="path164"
         style="fill:#414042;fill-opacity:1;fill-rule:nonzero;stroke:none"
         d="m 0,0 c -0.117,0.132 -0.254,0.231 -0.408,0.296 -0.154,0.067 -0.327,0.1 -0.518,0.1 -0.367,0 -0.699,-0.119 -0.996,-0.355 -0.297,-0.236 -0.497,-0.542 -0.601,-0.918 -0.102,-0.363 -0.072,-0.664 0.087,-0.899 0.16,-0.237 0.41,-0.355 0.752,-0.355 0.199,0 0.399,0.036 0.598,0.106 0.2,0.071 0.402,0.177 0.608,0.32 l -0.171,-0.619 c -0.177,-0.106 -0.36,-0.185 -0.547,-0.237 -0.189,-0.052 -0.383,-0.078 -0.586,-0.078 -0.257,0 -0.484,0.042 -0.679,0.126 -0.195,0.085 -0.352,0.209 -0.473,0.373 -0.12,0.161 -0.193,0.351 -0.22,0.57 -0.028,0.218 -0.007,0.45 0.061,0.698 0.07,0.247 0.178,0.479 0.326,0.696 0.149,0.217 0.329,0.407 0.541,0.572 0.214,0.165 0.441,0.291 0.681,0.375 0.24,0.085 0.485,0.128 0.737,0.128 0.198,0 0.378,-0.028 0.542,-0.087 0.163,-0.057 0.314,-0.144 0.45,-0.26 z" />
    </g>
    <g
       transform="matrix(0.35277777,0,0,-0.35277777,19.604738,11.17292)"
       id="g166">
      <path
         id="path168"
         style="fill:#414042;fill-opacity:1;fill-rule:nonzero;stroke:none"
         d="M 0,0 C 0.048,0.17 0.062,0.332 0.042,0.485 0.021,0.639 -0.029,0.775 -0.112,0.895 -0.193,1.013 -0.3,1.104 -0.431,1.167 -0.563,1.231 -0.712,1.263 -0.878,1.263 -1.044,1.263 -1.209,1.231 -1.376,1.168 -1.544,1.105 -1.702,1.014 -1.852,0.895 -2.002,0.777 -2.128,0.641 -2.231,0.487 -2.336,0.334 -2.412,0.171 -2.46,0 c -0.047,-0.17 -0.061,-0.332 -0.042,-0.484 0.02,-0.151 0.071,-0.287 0.154,-0.407 0.083,-0.119 0.191,-0.211 0.322,-0.274 0.131,-0.062 0.28,-0.093 0.447,-0.093 0.166,0 0.329,0.031 0.495,0.093 0.166,0.063 0.324,0.155 0.476,0.274 0.149,0.12 0.276,0.256 0.38,0.409 C -0.123,-0.33 -0.047,-0.168 0,0 M 0.57,0 C 0.504,-0.24 0.396,-0.466 0.248,-0.679 0.098,-0.893 -0.085,-1.082 -0.304,-1.25 -0.522,-1.417 -0.754,-1.544 -0.997,-1.633 -1.239,-1.722 -1.48,-1.767 -1.72,-1.767 c -0.242,0 -0.461,0.045 -0.656,0.134 -0.195,0.09 -0.353,0.218 -0.476,0.383 -0.127,0.168 -0.204,0.357 -0.234,0.569 -0.029,0.211 -0.011,0.438 0.056,0.681 0.067,0.24 0.175,0.468 0.323,0.681 0.148,0.213 0.331,0.404 0.55,0.572 0.219,0.168 0.449,0.295 0.69,0.383 0.242,0.087 0.486,0.131 0.729,0.131 0.243,0 0.46,-0.044 0.653,-0.131 C 0.107,1.548 0.267,1.421 0.393,1.253 0.517,1.083 0.594,0.892 0.624,0.677 0.655,0.463 0.637,0.238 0.57,0" />
    </g>
    <g
       transform="matrix(0.35277777,0,0,-0.35277777,20.245842,11.083033)"
       id="g170">
      <path
         id="path172"
         style="fill:#414042;fill-opacity:1;fill-rule:nonzero;stroke:none"
         d="M 0,0 H 0.098 C 0.389,0 0.59,0.034 0.704,0.102 0.818,0.168 0.898,0.289 0.947,0.46 0.998,0.646 0.983,0.777 0.902,0.853 0.822,0.928 0.643,0.966 0.367,0.966 H 0.269 Z m -0.153,-0.425 -0.419,-1.507 h -0.512 l 0.935,3.368 h 0.763 c 0.224,0 0.395,-0.015 0.51,-0.043 C 1.238,1.363 1.33,1.314 1.4,1.248 1.481,1.166 1.533,1.061 1.554,0.932 1.574,0.804 1.563,0.662 1.521,0.509 1.446,0.239 1.322,0.027 1.149,-0.125 0.977,-0.277 0.759,-0.37 0.496,-0.4 L 1.229,-1.932 H 0.61 l -0.701,1.507 z" />
    </g>
    <g
       transform="matrix(0.35277777,0,0,-0.35277777,21.212558,11.073013)"
       id="g174">
      <path
         id="path176"
         style="fill:#414042;fill-opacity:1;fill-rule:nonzero;stroke:none"
         d="M 0,0 H 0.141 C 0.443,0 0.656,0.033 0.775,0.099 0.895,0.165 0.978,0.281 1.023,0.448 1.074,0.628 1.055,0.754 0.968,0.828 0.88,0.901 0.69,0.938 0.401,0.938 H 0.261 Z M -0.158,-0.449 -0.579,-1.96 h -0.513 l 0.936,3.368 H 0.671 C 0.917,1.408 1.094,1.394 1.202,1.367 1.311,1.34 1.4,1.296 1.469,1.234 1.553,1.157 1.605,1.051 1.629,0.919 1.651,0.786 1.642,0.64 1.597,0.48 1.553,0.321 1.481,0.174 1.385,0.039 1.287,-0.096 1.175,-0.202 1.047,-0.279 0.944,-0.34 0.832,-0.384 0.709,-0.411 0.586,-0.436 0.401,-0.449 0.156,-0.449 H 0.047 Z" />
    </g>
    <g
       transform="matrix(0.35277777,0,0,-0.35277777,22.893086,11.17292)"
       id="g178">
      <path
         id="path180"
         style="fill:#414042;fill-opacity:1;fill-rule:nonzero;stroke:none"
         d="m 0,0 c 0.048,0.17 0.062,0.332 0.042,0.485 -0.019,0.154 -0.07,0.29 -0.154,0.41 -0.081,0.118 -0.187,0.209 -0.319,0.272 -0.131,0.064 -0.281,0.096 -0.446,0.096 -0.166,0 -0.332,-0.032 -0.499,-0.095 C -1.543,1.105 -1.701,1.014 -1.852,0.895 -2,0.777 -2.128,0.641 -2.231,0.487 -2.336,0.334 -2.411,0.171 -2.459,0 c -0.047,-0.17 -0.062,-0.332 -0.042,-0.484 0.019,-0.151 0.07,-0.287 0.153,-0.407 0.084,-0.119 0.191,-0.211 0.323,-0.274 0.13,-0.062 0.281,-0.093 0.448,-0.093 0.163,0 0.328,0.031 0.494,0.093 0.165,0.063 0.323,0.155 0.475,0.274 0.149,0.12 0.277,0.256 0.381,0.409 C -0.122,-0.33 -0.047,-0.168 0,0 M 0.57,0 C 0.504,-0.24 0.397,-0.466 0.248,-0.679 0.099,-0.893 -0.085,-1.082 -0.303,-1.25 -0.523,-1.417 -0.754,-1.544 -0.996,-1.633 -1.239,-1.722 -1.48,-1.767 -1.72,-1.767 c -0.241,0 -0.46,0.045 -0.656,0.134 -0.193,0.09 -0.353,0.218 -0.477,0.383 -0.124,0.168 -0.202,0.357 -0.232,0.569 -0.03,0.211 -0.012,0.438 0.055,0.681 0.067,0.24 0.175,0.468 0.323,0.681 0.148,0.213 0.331,0.404 0.551,0.572 0.219,0.168 0.447,0.295 0.69,0.383 0.241,0.087 0.485,0.131 0.73,0.131 0.241,0 0.459,-0.044 0.651,-0.131 C 0.108,1.548 0.268,1.421 0.393,1.253 0.517,1.083 0.594,0.892 0.624,0.677 0.654,0.463 0.637,0.238 0.57,0" />
    </g>
    <g
       transform="matrix(0.35277777,0,0,-0.35277777,23.467726,11.083033)"
       id="g182">
      <path
         id="path184"
         style="fill:#414042;fill-opacity:1;fill-rule:nonzero;stroke:none"
         d="M 0,0 H 0.1 C 0.39,0 0.591,0.034 0.704,0.102 0.818,0.168 0.899,0.289 0.947,0.46 0.998,0.646 0.983,0.777 0.902,0.853 0.822,0.928 0.644,0.966 0.367,0.966 H 0.269 Z m -0.152,-0.425 -0.419,-1.507 h -0.514 l 0.937,3.368 H 0.615 C 0.839,1.436 1.009,1.421 1.124,1.393 1.239,1.363 1.332,1.314 1.4,1.248 1.482,1.166 1.533,1.061 1.555,0.932 1.575,0.804 1.564,0.662 1.521,0.509 1.447,0.239 1.323,0.027 1.149,-0.125 0.978,-0.277 0.759,-0.37 0.496,-0.4 L 1.23,-1.932 H 0.611 l -0.701,1.507 z" />
    </g>
    <g
       transform="matrix(0.35277777,0,0,-0.35277777,24.463017,11.297803)"
       id="g186">
      <path
         id="path188"
         style="fill:#414042;fill-opacity:1;fill-rule:nonzero;stroke:none"
         d="M 0,0 H 0.938 L 0.807,0.768 C 0.801,0.817 0.796,0.874 0.792,0.937 0.788,1 0.786,1.072 0.786,1.149 0.747,1.076 0.709,1.008 0.671,0.944 0.632,0.88 0.595,0.822 0.559,0.768 Z m 1.146,-1.323 -0.141,0.867 h -1.334 l -0.632,-0.867 h -0.575 l 2.603,3.501 0.657,-3.501 z" />
    </g>
    <g
       transform="matrix(0.35277777,0,0,-0.35277777,25.660876,10.740413)"
       id="g190">
      <path
         id="path192"
         style="fill:#414042;fill-opacity:1;fill-rule:nonzero;stroke:none"
         d="M 0,0 -0.807,-2.903 H -1.354 L -0.548,0 h -0.894 l 0.129,0.465 H 1.02 L 0.89,0 Z" />
    </g>
    <g
       transform="matrix(0.35277777,0,0,-0.35277777,25.8748,11.764634)"
       id="g194">
      <path
         id="path196"
         style="fill:#414042;fill-opacity:1;fill-rule:nonzero;stroke:none"
         d="M 0,0 0.936,3.368 H 1.483 L 0.547,0 Z" />
    </g>
    <g
       transform="matrix(0.35277777,0,0,-0.35277777,27.460218,11.17292)"
       id="g198">
      <path
         id="path200"
         style="fill:#414042;fill-opacity:1;fill-rule:nonzero;stroke:none"
         d="M 0,0 C 0.047,0.17 0.061,0.332 0.041,0.485 0.021,0.639 -0.03,0.775 -0.112,0.895 -0.193,1.013 -0.3,1.104 -0.433,1.167 -0.563,1.231 -0.712,1.263 -0.878,1.263 -1.044,1.263 -1.21,1.231 -1.377,1.168 -1.544,1.105 -1.702,1.014 -1.852,0.895 -2.002,0.777 -2.128,0.641 -2.232,0.487 -2.335,0.334 -2.412,0.171 -2.46,0 c -0.047,-0.17 -0.061,-0.332 -0.042,-0.484 0.02,-0.151 0.07,-0.287 0.154,-0.407 0.082,-0.119 0.191,-0.211 0.322,-0.274 0.13,-0.062 0.28,-0.093 0.447,-0.093 0.165,0 0.329,0.031 0.495,0.093 0.165,0.063 0.323,0.155 0.476,0.274 0.149,0.12 0.276,0.256 0.38,0.409 C -0.123,-0.33 -0.047,-0.168 0,0 M 0.57,0 C 0.504,-0.24 0.396,-0.466 0.247,-0.679 0.099,-0.893 -0.086,-1.082 -0.305,-1.25 -0.523,-1.417 -0.755,-1.544 -0.997,-1.633 -1.24,-1.722 -1.48,-1.767 -1.72,-1.767 c -0.243,0 -0.461,0.045 -0.656,0.134 -0.195,0.09 -0.354,0.218 -0.477,0.383 -0.126,0.168 -0.204,0.357 -0.233,0.569 -0.03,0.211 -0.012,0.438 0.056,0.681 0.066,0.24 0.175,0.468 0.322,0.681 0.148,0.213 0.332,0.404 0.551,0.572 0.218,0.168 0.449,0.295 0.69,0.383 0.242,0.087 0.486,0.131 0.729,0.131 0.242,0 0.46,-0.044 0.652,-0.131 C 0.107,1.548 0.267,1.421 0.392,1.253 0.517,1.083 0.594,0.892 0.624,0.677 0.654,0.463 0.637,0.238 0.57,0" />
    </g>
    <g
       transform="matrix(0.35277777,0,0,-0.35277777,27.652131,11.764634)"
       id="g202">
      <path
         id="path204"
         style="fill:#414042;fill-opacity:1;fill-rule:nonzero;stroke:none"
         d="M 0,0 0.973,3.501 2.54,1.442 C 2.582,1.384 2.624,1.322 2.665,1.256 2.707,1.19 2.749,1.116 2.793,1.033 L 3.441,3.368 H 3.947 L 2.976,-0.131 1.374,1.964 C 1.331,2.021 1.292,2.081 1.255,2.144 1.217,2.207 1.185,2.273 1.154,2.342 L 0.504,0 Z" />
    </g>
    <g
       transform="matrix(0.35277777,0,0,-0.35277777,30.537041,11.17292)"
       id="g206">
      <path
         id="path208"
         style="fill:#414042;fill-opacity:1;fill-rule:nonzero;stroke:none"
         d="m 0,0 c 0.047,0.17 0.062,0.332 0.042,0.485 -0.02,0.154 -0.071,0.29 -0.154,0.41 -0.081,0.118 -0.187,0.209 -0.32,0.272 -0.13,0.064 -0.281,0.096 -0.446,0.096 -0.165,0 -0.332,-0.032 -0.499,-0.095 C -1.544,1.105 -1.702,1.014 -1.852,0.895 -2.001,0.777 -2.128,0.641 -2.232,0.487 -2.336,0.334 -2.411,0.171 -2.46,0 c -0.047,-0.17 -0.061,-0.332 -0.042,-0.484 0.02,-0.151 0.071,-0.287 0.154,-0.407 0.083,-0.119 0.191,-0.211 0.322,-0.274 0.13,-0.062 0.281,-0.093 0.448,-0.093 0.164,0 0.329,0.031 0.494,0.093 0.165,0.063 0.324,0.155 0.476,0.274 0.15,0.12 0.276,0.256 0.38,0.409 C -0.123,-0.33 -0.047,-0.168 0,0 M 0.569,0 C 0.504,-0.24 0.396,-0.466 0.247,-0.679 0.099,-0.893 -0.086,-1.082 -0.304,-1.25 -0.523,-1.417 -0.755,-1.544 -0.996,-1.633 -1.24,-1.722 -1.48,-1.767 -1.72,-1.767 c -0.242,0 -0.461,0.045 -0.656,0.134 -0.194,0.09 -0.353,0.218 -0.478,0.383 -0.124,0.168 -0.202,0.357 -0.232,0.569 -0.03,0.211 -0.012,0.438 0.057,0.681 0.066,0.24 0.174,0.468 0.322,0.681 0.148,0.213 0.331,0.404 0.55,0.572 0.219,0.168 0.448,0.295 0.691,0.383 0.241,0.087 0.485,0.131 0.729,0.131 0.242,0 0.46,-0.044 0.651,-0.131 C 0.107,1.548 0.267,1.421 0.392,1.253 0.517,1.083 0.594,0.892 0.624,0.677 0.654,0.463 0.637,0.238 0.569,0" />
    </g>
    <g
       transform="matrix(0.35277777,0,0,-0.35277777,30.728952,11.764634)"
       id="g210">
      <path
         id="path212"
         style="fill:#414042;fill-opacity:1;fill-rule:nonzero;stroke:none"
         d="M 0,0 0.936,3.368 H 2.815 L 2.687,2.903 H 1.354 L 1.121,2.063 H 2.453 L 2.319,1.583 H 0.987 L 0.548,0 Z" />
    </g>
    <g
       transform="matrix(0.35277777,0,0,-0.35277777,32.106301,11.764634)"
       id="g214">
      <path
         id="path216"
         style="fill:#414042;fill-opacity:1;fill-rule:nonzero;stroke:none"
         d="M 0,0 0.936,3.368 H 1.483 L 0.547,0 Z" />
    </g>
    <g
       transform="matrix(0.35277777,0,0,-0.35277777,32.476966,11.764634)"
       id="g218">
      <path
         id="path220"
         style="fill:#414042;fill-opacity:1;fill-rule:nonzero;stroke:none"
         d="M 0,0 0.974,3.501 2.541,1.442 C 2.583,1.384 2.625,1.322 2.666,1.256 2.708,1.19 2.75,1.116 2.793,1.033 L 3.441,3.368 H 3.948 L 2.976,-0.131 1.375,1.964 C 1.333,2.021 1.293,2.081 1.255,2.144 1.219,2.207 1.186,2.273 1.154,2.342 L 0.504,0 Z" />
    </g>
    <g
       transform="matrix(0.35277777,0,0,-0.35277777,33.987314,11.590149)"
       id="g222">
      <path
         id="path224"
         style="fill:#414042;fill-opacity:1;fill-rule:nonzero;stroke:none"
         d="M 0,0 H 0.46 C 0.714,0 0.907,0.017 1.043,0.051 1.18,0.084 1.306,0.141 1.421,0.221 1.578,0.33 1.712,0.465 1.82,0.627 1.93,0.789 2.014,0.978 2.073,1.192 2.132,1.406 2.152,1.594 2.135,1.757 2.115,1.918 2.058,2.054 1.961,2.162 1.888,2.242 1.79,2.299 1.667,2.333 1.543,2.367 1.341,2.384 1.059,2.384 H 0.86 0.663 Z M -0.686,-0.495 0.251,2.874 H 0.989 C 1.47,2.874 1.801,2.85 1.982,2.801 2.165,2.753 2.313,2.671 2.43,2.558 2.583,2.41 2.678,2.218 2.714,1.985 2.749,1.752 2.725,1.486 2.643,1.187 2.559,0.888 2.435,0.623 2.271,0.393 2.105,0.162 1.905,-0.03 1.669,-0.179 1.49,-0.292 1.3,-0.374 1.099,-0.422 0.897,-0.47 0.599,-0.495 0.201,-0.495 H 0.055 Z" />
    </g>
    <g
       transform="matrix(0.35277777,0,0,-0.35277777,34.879947,11.764634)"
       id="g226">
      <path
         id="path228"
         style="fill:#414042;fill-opacity:1;fill-rule:nonzero;stroke:none"
         d="M 0,0 0.935,3.368 H 1.482 L 0.547,0 Z" />
    </g>
    <g
       transform="matrix(0.35277777,0,0,-0.35277777,35.730529,11.297803)"
       id="g230">
      <path
         id="path232"
         style="fill:#414042;fill-opacity:1;fill-rule:nonzero;stroke:none"
         d="M 0,0 H 0.939 L 0.808,0.768 C 0.802,0.817 0.796,0.874 0.793,0.937 0.789,1 0.787,1.072 0.787,1.149 0.748,1.076 0.71,1.008 0.671,0.944 0.634,0.88 0.596,0.822 0.559,0.768 Z m 1.147,-1.323 -0.141,0.867 h -1.335 l -0.632,-0.867 h -0.574 l 2.604,3.501 0.656,-3.501 z" />
    </g>
  </g>
</svg>
